<svg width="128" height="128" viewBox="0 0 128 128" fill="none" xmlns="http://www.w3.org/2000/svg">
<path d="M4.112 63.344C4.112 59.184 4.88 55.12 6.416 51.152C8.016 47.12 10.32 43.472 13.328 40.208C16.336 36.944 19.984 34.352 24.272 32.432C28.624 30.448 33.52 29.456 38.96 29.456C45.488 29.456 51.184 30.832 56.048 33.584C60.912 36.272 64.528 39.856 66.896 44.336L52.592 54.512C51.76 52.272 50.544 50.544 48.944 49.328C47.408 48.112 45.712 47.28 43.856 46.832C42.064 46.32 40.304 46.064 38.576 46.064C35.888 46.064 33.552 46.608 31.568 47.696C29.648 48.72 28.048 50.096 26.768 51.824C25.552 53.552 24.624 55.472 23.984 57.584C23.408 59.696 23.12 61.808 23.12 63.92C23.12 66.288 23.472 68.56 24.176 70.736C24.88 72.912 25.904 74.864 27.248 76.592C28.592 78.256 30.224 79.568 32.144 80.528C34.128 81.488 36.336 81.968 38.768 81.968C40.496 81.968 42.256 81.712 44.048 81.2C45.84 80.624 47.472 79.728 48.944 78.512C50.416 77.296 51.536 75.664 52.304 73.616L67.568 82.736C66.224 86.064 63.984 88.912 60.848 91.28C57.712 93.648 54.16 95.472 50.192 96.752C46.224 97.968 42.288 98.576 38.384 98.576C33.328 98.576 28.688 97.584 24.464 95.6C20.304 93.552 16.688 90.864 13.616 87.536C10.608 84.144 8.272 80.368 6.608 76.208C4.944 71.984 4.112 67.696 4.112 63.344Z" fill="#B71C1C"/>
<path d="M122.807 81.68V98H74.231V29.84H121.943V46.16H92.951V55.76H117.719V70.928H92.951V81.68H122.807Z" fill="white"/>
</svg>
